# xmcd
# Copyright (C) 1995-1998 Ti Kan
#
# Track frame offsets:
#       150
#       31030
#       53667
#       73190
#       90420
#       113127
#       132940
#       152890
#
# Disc length: 2267 seconds
#
# Revision: 0
# Processed by: cddbd v1.5.1PL0 Copyright (c) Steve Scherf et al.
# Submitted via: CD-Transfer v1.0
#
DISCID=6008d908
DTITLE=Splitternacht - 
DYEAR=1900
DGENRE=
TTITLE0=Der Taucher
TTITLE1=Mattscheibe
TTITLE2=Jedes Mal
TTITLE3=Regen 1999
TTITLE4=Ein Sonntag im Sommer
TTITLE5=Fruchtgarten
TTITLE6=Immer weiter weg
TTITLE7=Zwei drei Schritte
EXTD=
EXTT0=
EXTT1=
EXTT2=
EXTT3=
EXTT4=
EXTT5=
EXTT6=
EXTT7=
PLAYORDER=
